<?xml version="1.0" standalone="no"?><svg xmlns="http://www.w3.org/2000/svg" viewBox="0 0 1440 320"><path fill="#863f92" fill-opacity="1" d="M0,160L40,144C80,128,160,96,240,101.3C320,107,400,149,480,181.3C560,213,640,235,720,202.7C800,171,880,85,960,85.3C1040,85,1120,171,1200,202.7C1280,235,1360,213,1400,202.7L1440,192L1440,320L1400,320C1360,320,1280,320,1200,320C1120,320,1040,320,960,320C880,320,800,320,720,320C640,320,560,320,480,320C400,320,320,320,240,320C160,320,80,320,40,320L0,320Z"></path></svg>